# xmcd
#
# Track frame offsets: 
#        150
#        22761
#        41743
#        55291
#        70027
#        83924
#        101408
#        120343
#        133839
#
# Disc length: 1990 seconds
#
# Revision: 6
# Processed by: cddbd v1.5.2PL0 Copyright (c) Steve Scherf et al.
# Submitted via: ExactAudioCopyFreeDBPlugin 1.0
#
DISCID=6d07c409
DTITLE=Wild Cherry - 1976 - Wild Cherry
DYEAR=1976
DGENRE=Funk
TTITLE0=Play That Funky Music
TTITLE1=The Lady Wants Your Money
TTITLE2=99½
TTITLE3=Don’t Go Near The Water
TTITLE4=Nowhere To Run
TTITLE5=I Feel Sanctified
TTITLE6=Hold On
TTITLE7=Get It Up
TTITLE8=What In The Funk Do You See
EXTD=
EXTT0=
EXTT1=
EXTT2=
EXTT3=
EXTT4=
EXTT5=
EXTT6=
EXTT7=
EXTT8=
PLAYORDER=
